<?xml version="1.0" encoding="UTF-8"?>
<svg id="Capa_2" data-name="Capa 2" xmlns="http://www.w3.org/2000/svg" viewBox="0 0 77.44 55.23">
  <defs>
    <style>
      .cls-1 {
        fill: #fff;
      }

      .cls-2 {
        fill: #ccc;
      }
    </style>
  </defs>
  <g id="OBJECTS">
    <g>
      <path class="cls-1" d="M39.83,10.24H3.24c-1.79,0-3.24-2.29-3.24-5.12H0C0,2.29,1.45,0,3.24,0H39.83c1.79,0,3.24,2.29,3.24,5.12h0c0,2.83-1.45,5.12-3.24,5.12Z"/>
      <path class="cls-1" d="M36.73,55.23H8.11c-1.79,0-3.24-2.29-3.24-5.12h0c0-2.83,1.45-5.12,3.24-5.12h28.62c1.79,0,3.24,2.29,3.24,5.12h0c0,2.83-1.45,5.12-3.24,5.12Z"/>
      <path class="cls-1" d="M74.19,32.73H37.6c-1.79,0-3.24-2.29-3.24-5.12h0c0-2.83,1.45-5.12,3.24-5.12h36.59c1.79,0,3.24,2.29,3.24,5.12h0c0,2.83-1.45,5.12-3.24,5.12Z"/>
      <path class="cls-2" d="M64.38,10.24h-13.19c-1.79,0-3.24-2.29-3.24-5.12h0c0-2.83,1.45-5.12,3.24-5.12h13.19c1.79,0,3.24,2.29,3.24,5.12h0c0,2.83-1.45,5.12-3.24,5.12Z"/>
      <path class="cls-2" d="M66,55.23h-17.92c-1.79,0-3.24-2.29-3.24-5.12h0c0-2.83,1.45-5.12,3.24-5.12h17.92c1.79,0,3.24,2.29,3.24,5.12h0c0,2.83-1.45,5.12-3.24,5.12Z"/>
      <path class="cls-2" d="M26.25,32.73h-8.86c-1.79,0-3.24-2.29-3.24-5.12h0c0-2.83,1.45-5.12,3.24-5.12h8.86c1.79,0,3.24,2.29,3.24,5.12h0c0,2.83-1.45,5.12-3.24,5.12Z"/>
    </g>
  </g>
</svg>