<?xml version="1.0" encoding="UTF-8"?>
<svg id="OBJECTS" xmlns="http://www.w3.org/2000/svg" viewBox="0 0 444.71 258.97">
  <defs>
    <style>
      .cls-1 {
        fill: #333;
      }

      .cls-2 {
        fill: #069;
      }
    </style>
  </defs>
  <g>
    <path class="cls-1" d="M225.46,39.29H86.9c-6.78,0-12.28-5.5-12.28-12.28h0c0-6.78,5.5-12.28,12.28-12.28H225.46c6.78,0,12.28,5.5,12.28,12.28h0c0,6.78-5.5,12.28-12.28,12.28Z"/>
    <path class="cls-1" d="M213.71,147.22H105.32c-6.78,0-12.28-5.5-12.28-12.28h0c0-6.78,5.5-12.28,12.28-12.28h108.39c6.78,0,12.28,5.5,12.28,12.28h0c0,6.78-5.5,12.28-12.28,12.28Z"/>
    <path class="cls-1" d="M355.57,93.26H217.01c-6.78,0-12.28-5.5-12.28-12.28h0c0-6.78,5.5-12.28,12.28-12.28h138.56c6.78,0,12.28,5.5,12.28,12.28h0c0,6.78-5.5,12.28-12.28,12.28Z"/>
    <path class="cls-2" d="M318.4,39.29h-49.96c-6.78,0-12.28-5.5-12.28-12.28h0c0-6.78,5.5-12.28,12.28-12.28h49.96c6.78,0,12.28,5.5,12.28,12.28h0c0,6.78-5.5,12.28-12.28,12.28Z"/>
    <path class="cls-2" d="M324.55,147.22h-67.85c-6.78,0-12.28-5.5-12.28-12.28h0c0-6.78,5.5-12.28,12.28-12.28h67.85c6.78,0,12.28,5.5,12.28,12.28h0c0,6.78-5.5,12.28-12.28,12.28Z"/>
    <path class="cls-2" d="M174.02,93.26h-33.54c-6.78,0-12.28-5.5-12.28-12.28h0c0-6.78,5.5-12.28,12.28-12.28h33.54c6.78,0,12.28,5.5,12.28,12.28h0c0,6.78-5.5,12.28-12.28,12.28Z"/>
  </g>
  <g>
    <path class="cls-2" d="M13.54,196.58c2.79-5.05,6.67-8.98,11.65-11.79,4.98-2.82,10.63-4.23,16.95-4.23,7.74,0,14.36,2.04,19.87,6.13,5.51,4.09,9.19,9.66,11.05,16.72h-17.46c-1.3-2.72-3.14-4.8-5.53-6.22-2.38-1.42-5.09-2.14-8.13-2.14-4.89,0-8.85,1.7-11.89,5.11-3.03,3.4-4.55,7.96-4.55,13.65s1.52,10.25,4.55,13.65c3.03,3.41,6.99,5.11,11.89,5.11,3.03,0,5.74-.71,8.13-2.14,2.38-1.42,4.23-3.5,5.53-6.22h17.46c-1.86,7.06-5.54,12.62-11.05,16.67-5.51,4.05-12.14,6.08-19.87,6.08-6.31,0-11.96-1.41-16.95-4.23-4.98-2.82-8.87-6.73-11.65-11.75-2.79-5.02-4.18-10.74-4.18-17.18s1.39-12.18,4.18-17.23Z"/>
    <path class="cls-2" d="M96.8,242.88c-5.11-2.85-9.16-6.83-12.17-11.93-3-5.11-4.5-10.85-4.5-17.23s1.5-12.1,4.5-17.18c3-5.08,7.06-9.04,12.17-11.89,5.11-2.85,10.73-4.27,16.86-4.27s11.75,1.42,16.86,4.27c5.11,2.85,9.13,6.81,12.07,11.89,2.94,5.08,4.41,10.81,4.41,17.18s-1.49,12.12-4.46,17.23c-2.97,5.11-7,9.09-12.07,11.93-5.08,2.85-10.68,4.27-16.81,4.27s-11.75-1.42-16.86-4.27Zm29.35-15.42c3.13-3.47,4.69-8.05,4.69-13.74s-1.56-10.35-4.69-13.79c-3.13-3.44-7.29-5.15-12.49-5.15s-9.46,1.7-12.58,5.11c-3.13,3.41-4.69,8.02-4.69,13.84s1.56,10.35,4.69,13.79c3.13,3.44,7.32,5.15,12.58,5.15s9.36-1.73,12.49-5.2Z"/>
    <path class="cls-2" d="M198.25,185.39c5.14,2.73,9.12,6.55,11.93,11.47,2.82,4.92,4.23,10.6,4.23,17.04s-1.41,12.04-4.23,16.99c-2.82,4.95-6.81,8.79-11.98,11.52-5.17,2.72-11.16,4.09-17.97,4.09h-24.42v-65.19h24.42c6.87,0,12.88,1.36,18.02,4.09Zm-5.01,42.44c3.34-3.28,5.01-7.92,5.01-13.93s-1.67-10.68-5.01-14.02c-3.34-3.34-8.02-5.02-14.02-5.02h-7.52v37.89h7.52c6,0,10.68-1.64,14.02-4.92Z"/>
    <path class="cls-2" d="M239.21,194.03v13.19h21.27v12.26h-21.27v14.3h24.05v12.72h-39.93v-65.19h39.93v12.72h-24.05Z"/>
    <path class="cls-1" d="M281.74,241.21h23.31v5.29h-29.81v-64.91h6.5v59.62Z"/>
    <path class="cls-1" d="M377.76,182.42v64.08h-6.5v-51.17l-22.84,51.17h-4.74l-22.84-50.98v50.98h-6.5v-64.08h6.87l24.8,55.53,24.79-55.53h6.97Z"/>
    <path class="cls-1" d="M400.93,244.92c-3.25-1.49-5.8-3.56-7.66-6.22-1.86-2.66-2.85-5.63-2.97-8.92h6.87c.31,3.16,1.7,5.93,4.18,8.31,2.48,2.38,6.1,3.58,10.87,3.58,4.39,0,7.88-1.13,10.45-3.39,2.57-2.26,3.85-5.12,3.85-8.59,0-2.79-.71-5.03-2.14-6.73-1.42-1.7-3.19-2.97-5.29-3.81-2.11-.84-5.01-1.75-8.73-2.74-4.33-1.18-7.77-2.32-10.31-3.44-2.54-1.11-4.71-2.85-6.5-5.2-1.8-2.35-2.69-5.54-2.69-9.57,0-3.34,.87-6.33,2.6-8.96,1.73-2.63,4.18-4.69,7.34-6.17,3.16-1.49,6.78-2.23,10.86-2.23,6,0,10.85,1.47,14.53,4.41,3.68,2.94,5.8,6.73,6.36,11.38h-7.06c-.43-2.66-1.89-5.03-4.36-7.1-2.48-2.07-5.82-3.11-10.03-3.11-3.9,0-7.15,1.04-9.75,3.11-2.6,2.08-3.9,4.91-3.9,8.5,0,2.73,.71,4.92,2.14,6.59,1.42,1.67,3.2,2.94,5.34,3.81,2.14,.87,5.03,1.8,8.68,2.79,4.21,1.18,7.61,2.34,10.21,3.48,2.6,1.15,4.8,2.89,6.59,5.25,1.8,2.35,2.69,5.51,2.69,9.47,0,3.03-.8,5.91-2.41,8.64-1.61,2.73-3.99,4.92-7.15,6.59-3.16,1.67-6.93,2.51-11.33,2.51s-8.03-.74-11.28-2.23Z"/>
  </g>
</svg>