<?xml version="1.0" encoding="UTF-8"?>
<!DOCTYPE svg PUBLIC "-//W3C//DTD SVG 1.1//EN" "http://www.w3.org/Graphics/SVG/1.1/DTD/svg11.dtd">
<!-- Creator: CorelDRAW 2019 (64-Bit) -->
<svg xmlns="http://www.w3.org/2000/svg" xml:space="preserve" width="297mm" height="210mm" version="1.1" style="shape-rendering:geometricPrecision; text-rendering:geometricPrecision; image-rendering:optimizeQuality; fill-rule:evenodd; clip-rule:evenodd"
viewBox="0 0 29700 21000"
 xmlns:xlink="http://www.w3.org/1999/xlink"
 xmlns:xodm="http://www.corel.com/coreldraw/odm/2003"
 data-name="Capa 2">
 <defs>
  <style type="text/css">
   <![CDATA[
    .fil0 {fill:#FEFEFE}
    .fil1 {fill:black;fill-rule:nonzero}
    .fil2 {fill:#006699;fill-rule:nonzero}
   ]]>
  </style>
 </defs>
 <g id="Capa_x0020_1">
  <metadata id="CorelCorpID_0Corel-Layer"/>
  <g id="_2122610932512">
   <rect class="fil0" x="3479.08" y="716.54" width="22740.79" height="19581.18" rx="5299.03" ry="4562.78"/>
   <g>
    <path class="fil1" d="M14401.01 16745.94l-6465.86 0c-404.4,0 -731.99,-517.36 -731.99,-1156.71l0.01 0c0,-639.36 327.58,-1156.72 731.99,-1156.72l6465.85 0c404.41,0 731.99,517.36 731.99,1156.72l-0.01 0c0,639.35 -327.58,1156.71 -731.98,1156.71l0 0zm700.36 -10164.19l-8266.45 0c-404.41,0 -731.99,-517.36 -731.99,-1156.72l0 0c0,-639.35 327.58,-1156.71 731.99,-1156.71l8266.45 0c404.4,0 731.99,517.36 731.99,1156.71l-0.01 0c0,639.36 -327.59,1156.72 -731.99,1156.72l0.01 0zm7762.65 5080.96l-8266.46 0c-404.4,0 -731.99,-517.36 -731.99,-1156.71l0 0c0,-639.36 327.59,-1156.72 731.99,-1156.72l8266.46 0c404.4,0 731.98,517.36 731.98,1156.72l0 0c0,639.35 -327.58,1156.71 -731.98,1156.71z"/>
    <path class="fil2" d="M20647.73 6581.75l-2979.89 0c-404.41,0 -731.99,-517.36 -731.99,-1156.72l0 0c0,-639.35 327.58,-1156.71 731.99,-1156.71l2979.89 0c404.4,0 731.99,517.36 731.99,1156.71l-0.01 0c0,639.36 -327.59,1156.72 -731.99,1156.72l0.01 0z"/>
    <path class="fil2" d="M21013.73 16745.94l-4048.52 0c-404.4,0 -731.98,-517.36 -731.98,-1156.71l0 0c0,-639.36 327.59,-1156.72 731.99,-1156.72l4048.51 0c404.4,0 731.98,517.36 731.98,1156.72l0 0c0,639.35 -327.59,1156.71 -731.99,1156.71l0.01 0z"/>
    <path class="fil2" d="M12033.35 11662.71l-2001.65 0c-404.4,0 -731.99,-517.36 -731.99,-1156.71l0 0c0,-639.36 327.59,-1156.72 731.99,-1156.72l2001.65 0c404.4,0 731.99,517.36 731.99,1156.72l0 0c0,639.35 -327.59,1156.71 -731.99,1156.71z"/>
   </g>
  </g>
 </g>
</svg>
